<?xml version="1.0" standalone="no"?><!DOCTYPE svg PUBLIC "-//W3C//DTD SVG 1.1//EN" "http://www.w3.org/Graphics/SVG/1.1/DTD/svg11.dtd"><svg t="1522823273908" class="icon" style="" viewBox="0 0 1024 1024" version="1.1" xmlns="http://www.w3.org/2000/svg" p-id="1858" xmlns:xlink="http://www.w3.org/1999/xlink" width="200" height="200"><defs><style type="text/css"></style></defs><path d="M130.735 253.626m-66.735 0a66.735 66.735 0 1 0 133.47 0 66.735 66.735 0 1 0-133.47 0Z" fill="#fff" p-id="1859"></path><path d="M130.735 503.434m-66.735 0a66.735 66.735 0 1 0 133.47 0 66.735 66.735 0 1 0-133.47 0Z" fill="#fff" p-id="1860"></path><path d="M130.735 770.374m-66.735 0a66.735 66.735 0 1 0 133.47 0 66.735 66.735 0 1 0-133.47 0Z" fill="#fff" p-id="1861"></path><path d="M913.385 283.49H351.807c-16.494 0-29.867-13.373-29.867-29.867s13.373-29.867 29.867-29.867h561.578c16.494 0 29.867 13.373 29.867 29.867s-13.373 29.867-29.867 29.867zM913.385 533.304H351.807c-16.494 0-29.867-13.373-29.867-29.867s13.373-29.867 29.867-29.867h561.578c16.494 0 29.867 13.373 29.867 29.867 0 16.493-13.373 29.867-29.867 29.867zM930.133 800.238H368.564c-16.494 0-29.867-13.373-29.867-29.867s13.373-29.867 29.867-29.867h561.569c16.494 0 29.867 13.373 29.867 29.867s-13.373 29.867-29.867 29.867z" fill="#fff" p-id="1862"></path></svg>
